<svg
                      width="30"
                      height="30"
                      viewBox="0 0 42 42"
                      fill="none"
                      xmlns="http://www.w3.org/2000/svg"
                      className="w-7"
                    >
                      <path
                        d="M20.8466 41.9565C32.3599 41.9565 41.6933 32.5642 41.6933 20.9782C41.6933 9.39227 32.3599 0 20.8466 0C9.33335 0 0 9.39227 0 20.9782C0 32.5642 9.33335 41.9565 20.8466 41.9565Z"
                        fill="#1A1C45"
                      />
                      <path
                        d="M28.0061 31.7853C26.9532 32.8448 26.0056 33.7984 25.0581 34.7519C20.9519 30.6199 16.7405 26.3818 12.6343 22.2498C13.5819 21.2962 14.6347 20.2367 15.5823 19.2831C17.0563 21.0843 18.9515 21.5081 21.0572 20.4486C22.3206 19.8129 22.9523 18.7534 23.1629 17.376C19.162 17.376 15.2664 17.376 11.2656 17.376C11.2656 16.5284 11.2656 15.7868 11.2656 14.9392C15.0559 14.9392 18.9515 14.9392 22.7418 14.9392C22.6365 14.7273 22.4259 14.5154 22.3206 14.3035C21.6889 13.4559 20.8466 13.0321 19.899 12.7142C19.7938 12.7142 19.6885 12.7142 19.5832 12.7142C16.5299 12.7142 13.4766 12.7142 10.4233 12.7142C10.318 12.7142 10.2127 12.7142 10.1074 12.7142C10.1074 11.8666 10.1074 11.1249 10.1074 10.2773C17.2669 10.2773 24.4263 10.2773 31.5858 10.2773C31.5858 11.1249 31.5858 11.8666 31.5858 12.7142C29.7959 12.7142 28.1114 12.7142 26.2162 12.7142C26.6374 13.3499 26.8479 14.0916 27.0585 14.7273C27.0585 14.8332 27.1638 14.8332 27.2691 14.8332C28.0061 14.8332 28.8484 14.8332 29.5854 14.8332C29.6906 14.8332 29.7959 14.8332 29.9012 14.8332C29.9012 15.6808 29.9012 16.4225 29.9012 17.2701C29.7959 17.2701 29.6906 17.2701 29.5854 17.2701C28.8484 17.2701 28.1114 17.2701 27.4796 17.2701C27.3744 17.2701 27.2691 17.2701 27.2691 17.482C26.7426 21.0843 24.7422 23.5212 21.373 24.7926C21.2678 24.7926 21.2678 24.7926 21.1625 24.8985C23.4788 27.2294 25.6898 29.5604 28.0061 31.7853Z"
                        fill="#F3DE42"
                      />
                    </svg>