<svg width="61" height="61" viewBox="0 0 61 61" fill="none" xmlns="http://www.w3.org/2000/svg">
<path d="M0 0.690918V61H60.4146V0.690918H0ZM6.09793 55.0255V41.9491C11.1795 45.6691 15.8094 49.9527 19.6489 55.0255H6.09793ZM54.3167 55.0255H42.3467C34.1032 39.92 21.4557 27.52 6.09793 19.7418V6.77819H7.22717C27.6665 15.7964 44.2664 31.6909 54.3167 51.4182V55.0255ZM54.3167 18.6146C50.4773 14.3309 46.412 10.3855 42.0079 6.66546H54.3167V18.6146Z" fill="url(#paint0_linear_64_1879)"/>
<g opacity="0.15">
<path d="M54.3167 6.77819V18.7273C52.397 16.5855 50.4773 14.5564 48.4446 12.64L35.3454 25.7164C43.0243 33.1564 49.461 41.8364 54.3167 51.4182V55.0255H42.3467C38.1685 47.36 32.8611 40.4836 26.6502 34.5091L13.2122 47.8109C15.5836 50.0655 17.7292 52.4327 19.6489 54.9127H6.09793L0 61H60.4146V0.690918L54.3167 6.77819Z" fill="#F05B43"/>
</g>
<defs>
<linearGradient id="paint0_linear_64_1879" x1="30.2062" y1="-4.09503" x2="30.2062" y2="61.696" gradientUnits="userSpaceOnUse">
<stop stop-color="#FFD13D"/>
<stop offset="1" stop-color="#EBE849"/>
</linearGradient>
</defs>
</svg>
