<svg width="256" height="61" viewBox="0 0 256 61" fill="none" xmlns="http://www.w3.org/2000/svg">
<path d="M85.371 9.74916C83.79 9.74916 82.4349 10.2001 81.4186 11.2146C80.2894 12.2292 79.7247 13.3564 79.7247 14.7092C79.7247 16.0619 80.1764 17.0764 80.9669 17.7528C81.7574 18.3164 83.4513 18.9928 86.0485 19.7819C89.2104 20.6837 91.5818 21.5855 93.0498 22.7128C95.5342 24.5164 96.7764 27.1092 96.7764 30.491C96.7764 33.4219 95.6471 36.0146 93.3886 38.0437C91.1301 40.1855 88.4199 41.2001 85.258 41.2001C82.0962 41.2001 79.386 40.1855 77.1275 38.0437C74.869 35.9019 73.7397 33.4219 73.7397 30.491H79.4989C79.4989 31.8437 80.0635 33.0837 81.1928 33.9855C82.322 35.0001 83.6771 35.451 85.1451 35.451C86.7261 35.451 88.0812 35.0001 89.0975 33.9855C90.2267 33.0837 90.7914 31.8437 90.7914 30.491C90.7914 29.0255 90.3397 28.011 89.3233 27.2219C88.5329 26.6582 86.839 25.9819 84.3546 25.3055C81.1928 24.4037 78.8213 23.5019 77.4663 22.4873C74.9819 20.6837 73.7397 18.091 73.7397 14.8219C73.7397 11.891 74.869 9.29825 77.1275 7.26916C79.386 5.12734 82.0962 4.11279 85.258 4.11279C88.4199 4.11279 91.1301 5.12734 93.3886 7.26916C95.6471 9.41097 96.7764 11.891 96.7764 14.8219H91.0172C91.0172 13.4692 90.4526 12.3419 89.3233 11.3273C88.307 10.3128 86.9519 9.74916 85.371 9.74916Z" fill="white"/>
<path d="M116.877 40.6364L107.165 30.9418V39.1709C107.165 40.0727 106.488 40.7491 105.584 40.7491H101.519V4.45093H107.165V23.0509L116.312 13.3564H124.443L111.231 26.9964L125.233 40.6364H116.877Z" fill="white"/>
<path d="M132.235 5.12728C132.799 5.69092 133.138 6.48001 133.138 7.2691C133.138 8.05819 132.799 8.84728 132.235 9.41092C131.67 9.97456 130.88 10.3127 129.976 10.3127C129.073 10.3127 128.395 9.97456 127.831 9.41092C127.266 8.84728 126.927 8.05819 126.927 7.2691C126.927 6.48001 127.266 5.69092 127.831 5.12728C128.395 4.56365 129.186 4.22546 129.976 4.22546C130.993 4.22546 131.67 4.56365 132.235 5.12728ZM127.266 40.6364H131.444C132.235 40.6364 132.912 39.96 132.912 39.1709V13.3564H127.266V40.6364Z" fill="white"/>
<path d="M139.349 4.45093H144.995V39.1709C144.995 39.96 144.318 40.6364 143.527 40.6364H139.462V4.45093H139.349Z" fill="white"/>
<path d="M151.884 4.45093H157.53V39.1709C157.53 39.96 156.852 40.6364 156.062 40.6364H151.884V4.45093Z" fill="white"/>
<path d="M176.388 12.7928C179.889 12.7928 182.825 14.1456 185.309 16.851C187.794 19.5565 189.036 22.7128 189.036 26.5456V39.171C189.036 40.0728 188.358 40.7492 187.455 40.7492H183.503V26.4328C183.503 24.1783 182.825 22.3747 181.47 20.7965C180.115 19.2183 178.421 18.4292 176.501 18.4292C174.581 18.4292 172.888 19.2183 171.533 20.7965C170.177 22.3747 169.5 24.291 169.5 26.4328V39.171C169.5 39.9601 168.822 40.6365 168.032 40.6365H163.741V14.4838C163.741 13.8074 164.305 13.3565 164.87 13.3565H169.387V15.0474C171.533 13.5819 173.791 12.7928 176.388 12.7928Z" fill="white"/>
<path d="M217.041 40.6364H212.976V38.8328C211.056 40.1855 208.91 40.9746 206.539 40.9746C203.264 40.9746 200.328 39.6219 197.957 37.0292C195.585 34.3237 194.456 31.1674 194.456 27.3346V13.3564H198.408C199.312 13.3564 200.102 14.1455 200.102 15.0474V27.2219C200.102 29.4764 200.78 31.2801 202.022 32.8583C203.264 34.4364 204.845 35.2255 206.539 35.2255C208.346 35.2255 209.814 34.4364 211.056 32.8583C212.298 31.2801 212.976 29.4764 212.976 27.2219V13.3564H218.622V39.171C218.622 39.9601 217.944 40.6364 217.041 40.6364Z" fill="white"/>
<path d="M231.608 13.3564H233.076C234.319 13.3564 235.335 14.3709 235.335 15.6109V18.9927H231.608V39.1709C231.608 39.96 230.931 40.6364 230.14 40.6364H226.075V18.9927H222.349V13.3564H226.075V4.45093H231.721V13.3564H231.608Z" fill="white"/>
<path d="M247.079 18.7673C246.175 18.7673 245.498 18.9928 244.82 19.5564C244.256 20.1201 243.917 20.6837 243.917 21.4728C243.917 22.1492 244.143 22.6001 244.482 22.9382C244.933 23.2764 246.063 23.7273 247.756 24.1782C250.128 24.8546 251.822 25.531 252.951 26.4328C254.871 27.8982 255.887 29.9273 255.887 32.5201C255.887 34.8873 254.984 36.8037 253.29 38.4946C251.596 40.1855 249.45 40.9746 246.966 40.9746C244.482 40.9746 242.449 40.1855 240.642 38.4946C238.948 36.8037 238.045 34.8873 238.045 32.5201H243.804C243.804 33.3092 244.143 33.8728 244.707 34.4364C245.272 35.0001 246.063 35.2255 246.966 35.2255C247.869 35.2255 248.547 35.0001 249.224 34.4364C249.902 33.8728 250.128 33.3092 250.128 32.5201C250.128 31.8437 249.902 31.2801 249.45 30.9419C248.999 30.6037 247.869 30.1528 246.175 29.7019C243.804 29.0255 242.11 28.3492 240.981 27.4473C239.061 26.0946 238.045 24.0655 238.045 21.3601C238.045 18.9928 238.948 17.0764 240.642 15.3855C242.336 13.6946 244.482 12.9055 246.966 12.9055C249.45 12.9055 251.483 13.6946 253.29 15.3855C254.984 17.0764 255.887 18.9928 255.887 21.3601H250.128C250.128 20.6837 249.789 20.0073 249.224 19.4437C248.66 19.1055 247.982 18.7673 247.079 18.7673Z" fill="white"/>
<path d="M74.8688 51.3055C75.2076 50.7418 75.6593 50.1782 76.3368 49.84C76.9015 49.5018 77.579 49.2764 78.3695 49.2764C79.16 49.2764 79.9504 49.5018 80.628 49.84C81.3055 50.1782 81.7572 50.8545 81.9831 51.5309H80.4021C80.1763 51.08 79.9504 50.8545 79.6117 50.6291C79.2729 50.4036 78.8212 50.2909 78.3695 50.2909C77.8049 50.2909 77.3532 50.4036 77.0144 50.6291C76.6756 50.8545 76.3368 51.1927 76.111 51.6436C75.8851 52.0946 75.7722 52.5455 75.7722 53.1091C75.7722 53.6727 75.8851 54.2364 76.111 54.5745C76.3368 54.9127 76.6756 55.3636 77.0144 55.5891C77.4661 55.8146 77.9178 55.9273 78.3695 55.9273C78.8212 55.9273 79.2729 55.8146 79.6117 55.5891C79.9504 55.3636 80.2892 55.0255 80.4021 54.6873H81.9831C81.6443 55.4764 81.1926 56.04 80.628 56.3782C80.0634 56.7164 79.2729 56.9418 78.3695 56.9418C77.579 56.9418 77.0144 56.7164 76.3368 56.3782C75.7722 56.04 75.2076 55.5891 74.8688 54.9127C74.53 54.3491 74.3042 53.6727 74.3042 52.8836C74.3042 52.6582 74.53 51.9818 74.8688 51.3055Z" fill="white"/>
<path d="M85.0322 56.8291C84.4675 56.4909 83.9029 56.04 83.5641 55.3636C83.2254 54.8 82.9995 54.1236 82.9995 53.3346C82.9995 52.5455 83.2254 51.8691 83.5641 51.3055C83.9029 50.7418 84.3546 50.1782 85.0322 49.84C85.5968 49.5018 86.2743 49.2764 87.0648 49.2764C87.8553 49.2764 88.4199 49.5018 89.0974 49.84C89.6621 50.1782 90.2267 50.6291 90.5655 51.3055C90.9042 51.8691 91.1301 52.5455 91.1301 53.3346C91.1301 54.1236 90.9042 54.8 90.5655 55.3636C90.2267 55.9273 89.775 56.4909 89.0974 56.8291C88.5328 57.1673 87.8553 57.3927 87.0648 57.3927C86.2743 57.3927 85.5968 57.1673 85.0322 56.8291ZM88.4199 55.9273C88.8716 55.7018 89.0974 55.3636 89.3233 54.9127C89.5491 54.4618 89.6621 54.0109 89.6621 53.4473C89.6621 52.8836 89.5491 52.32 89.3233 51.9818C89.0974 51.5309 88.7587 51.1927 88.4199 50.9673C88.0811 50.7418 87.5165 50.6291 87.0648 50.6291C86.6131 50.6291 86.0485 50.7418 85.7097 50.9673C85.3709 51.1927 85.0322 51.5309 84.8063 51.9818C84.5805 52.4327 84.4675 52.8836 84.4675 53.4473C84.4675 54.0109 84.5805 54.5745 84.8063 54.9127C85.0322 55.2509 85.3709 55.7018 85.7097 55.9273C86.0485 56.1527 86.6131 56.2655 87.0648 56.2655C87.5165 56.2655 87.9682 56.1527 88.4199 55.9273Z" fill="white"/>
<path d="M98.6958 57.28H97.4537L93.6142 51.4182V57.28H92.3721V49.5018H93.6142L97.4537 55.3637V49.5018H98.6958V57.28Z" fill="white"/>
<path d="M106.826 57.28H105.584L101.632 51.5309V57.3927H100.39V49.6145H101.632L105.471 55.4763V49.6145H106.713V57.28H106.826Z" fill="white"/>
<path d="M109.763 50.5163V52.7709H112.473V53.7854H109.763V56.1527H112.812V57.1672H108.521V49.389H112.812V50.4036H109.763V50.5163Z" fill="white"/>
<path d="M114.506 51.3055C114.844 50.7418 115.296 50.1782 115.974 49.84C116.538 49.5018 117.216 49.2764 118.006 49.2764C118.797 49.2764 119.587 49.5018 120.265 49.84C120.942 50.1782 121.394 50.8545 121.62 51.5309H120.039C119.813 51.08 119.587 50.8545 119.248 50.6291C118.91 50.4036 118.458 50.2909 118.006 50.2909C117.442 50.2909 116.99 50.4036 116.651 50.6291C116.312 50.8545 115.974 51.1927 115.748 51.6436C115.522 52.0946 115.409 52.5455 115.409 53.1091C115.409 53.6727 115.522 54.2364 115.748 54.5745C115.974 54.9127 116.312 55.3636 116.651 55.5891C117.103 55.8146 117.555 55.9273 118.006 55.9273C118.458 55.9273 118.91 55.8146 119.248 55.5891C119.587 55.3636 119.926 55.0255 120.039 54.6873H121.62C121.281 55.4764 120.829 56.04 120.265 56.3782C119.7 56.7164 118.91 56.9418 118.006 56.9418C117.216 56.9418 116.651 56.7164 115.974 56.3782C115.409 56.04 114.844 55.5891 114.506 54.9127C114.167 54.3491 113.941 53.6727 113.941 52.8836C113.941 52.6582 114.167 51.9818 114.506 51.3055Z" fill="white"/>
<path d="M128.169 49.5018V50.5164H126.137V57.28H124.895V50.5164H122.749V49.5018H128.169Z" fill="white"/>
<path d="M137.542 54.0109C137.881 54.349 137.994 54.8 137.994 55.2509C137.994 55.7018 137.881 56.04 137.655 56.3781C137.429 56.7163 137.203 56.9418 136.751 57.1672C136.413 57.3927 135.961 57.3927 135.396 57.3927H132.234V49.6145H135.17C135.735 49.6145 136.187 49.7272 136.526 49.84C136.864 49.9527 137.203 50.2909 137.429 50.5163C137.655 50.8545 137.768 51.1927 137.768 51.5309C137.768 51.9818 137.655 52.32 137.429 52.6581C137.203 52.9963 136.864 53.2218 136.413 53.3345C136.977 53.3345 137.316 53.56 137.542 54.0109ZM133.589 52.7709H135.17C135.622 52.7709 135.961 52.6581 136.187 52.4327C136.413 52.2072 136.526 51.9818 136.526 51.6436C136.526 51.3054 136.413 50.9672 136.187 50.8545C135.961 50.7418 135.622 50.5163 135.17 50.5163H133.589V52.7709ZM136.413 55.9272C136.638 55.7018 136.751 55.4763 136.751 55.0254C136.751 54.6872 136.638 54.349 136.413 54.1236C136.187 53.8981 135.848 53.7854 135.396 53.7854H133.702V56.2654H135.396C135.848 56.2654 136.187 56.1527 136.413 55.9272Z" fill="white"/>
<path d="M140.704 50.5163V52.7709H143.414V53.7854H140.704V56.1527H143.753V57.1672H139.462V49.389H143.753V50.4036H140.704V50.5163Z" fill="white"/>
<path d="M150.416 49.5018V50.5164H148.383V57.28H147.141V50.5164H144.995V49.5018H150.416Z" fill="white"/>
<path d="M156.739 49.5018V50.5164H154.707V57.28H153.464V50.5164H151.319V49.5018H156.739Z" fill="white"/>
<path d="M159.336 50.5163V52.7709H162.047V53.7854H159.336V56.1527H162.385V57.1672H158.094V49.389H162.385V50.4036H159.336V50.5163Z" fill="white"/>
<path d="M167.919 57.28L166.112 54.1237H165.096V57.28H163.854V49.5018H166.564C167.128 49.5018 167.693 49.6146 168.032 49.84C168.483 50.0655 168.709 50.2909 168.935 50.6291C169.161 50.9673 169.274 51.4182 169.274 51.7564C169.274 52.32 169.161 52.7709 168.822 53.1091C168.483 53.56 168.032 53.7855 167.467 54.0109L169.387 57.28H167.919ZM165.209 53.2218H166.677C167.128 53.2218 167.467 53.1091 167.806 52.8836C168.145 52.6582 168.145 52.32 168.145 51.8691C168.145 51.4182 168.032 51.1927 167.806 50.9673C167.58 50.7418 167.241 50.6291 166.677 50.6291H165.209V53.2218Z" fill="white"/>
<path d="M170.968 57.1673C170.855 57.0546 170.742 56.8291 170.742 56.6037C170.742 56.3782 170.855 56.1528 170.968 56.04C171.08 55.9273 171.306 55.8146 171.532 55.8146C171.758 55.8146 171.984 55.9273 172.097 56.04C172.21 56.1528 172.323 56.3782 172.323 56.6037C172.323 56.8291 172.21 57.0546 172.097 57.1673C171.984 57.28 171.758 57.3928 171.532 57.3928C171.306 57.3928 171.08 57.28 170.968 57.1673Z" fill="white"/>
<path d="M182.26 51.7564C182.034 51.4182 181.808 51.08 181.47 50.8546C181.131 50.6291 180.679 50.5164 180.227 50.5164C179.663 50.5164 179.211 50.6291 178.872 50.8546C178.421 51.08 178.195 51.4182 177.969 51.8691C177.743 52.32 177.63 52.7709 177.63 53.3346C177.63 53.8982 177.743 54.3491 177.969 54.8C178.195 55.2509 178.534 55.5891 178.872 55.8146C179.324 56.04 179.776 56.1527 180.227 56.1527C180.905 56.1527 181.47 55.9273 181.921 55.5891C182.373 55.2509 182.599 54.6873 182.712 54.0109H179.776V52.9964H184.067V54.0109C183.954 54.5745 183.728 55.1382 183.389 55.7018C183.051 56.2655 182.599 56.6036 182.034 56.9418C181.47 57.28 180.905 57.3927 180.227 57.3927C179.437 57.3927 178.872 57.1673 178.195 56.8291C177.63 56.4909 177.066 56.04 176.727 55.3636C176.388 54.8 176.162 54.1236 176.162 53.3346C176.162 52.5455 176.388 51.8691 176.727 51.3055C177.066 50.7418 177.517 50.1782 178.195 49.84C178.759 49.5018 179.437 49.2764 180.227 49.2764C181.018 49.2764 181.808 49.5018 182.486 49.84C183.163 50.1782 183.615 50.8545 183.841 51.5309H182.26V51.7564Z" fill="white"/>
<path d="M189.374 57.28L187.568 54.1237H186.551V57.28H185.309V49.5018H188.019C188.584 49.5018 189.149 49.6146 189.487 49.84C189.939 50.0655 190.165 50.2909 190.391 50.6291C190.617 50.9673 190.729 51.4182 190.729 51.7564C190.729 52.32 190.617 52.7709 190.278 53.1091C189.939 53.56 189.487 53.7855 188.923 54.0109L190.842 57.28H189.374ZM186.551 53.2218H188.019C188.471 53.2218 188.81 53.1091 189.149 52.8836C189.487 52.6582 189.487 52.32 189.487 51.8691C189.487 51.4182 189.374 51.1927 189.149 50.9673C188.923 50.7418 188.584 50.6291 188.019 50.6291H186.551V53.2218Z" fill="white"/>
<path d="M194.004 56.8291C193.44 56.4909 192.875 56.04 192.536 55.3636C192.198 54.8 191.972 54.1236 191.972 53.3346C191.972 52.5455 192.198 51.8691 192.536 51.3055C192.875 50.7418 193.327 50.1782 194.004 49.84C194.569 49.5018 195.246 49.2764 196.037 49.2764C196.827 49.2764 197.392 49.5018 198.07 49.84C198.634 50.1782 199.199 50.6291 199.538 51.3055C199.876 51.8691 200.102 52.5455 200.102 53.3346C200.102 54.1236 199.876 54.8 199.538 55.3636C199.199 55.9273 198.747 56.4909 198.07 56.8291C197.505 57.1673 196.827 57.3927 196.037 57.3927C195.246 57.3927 194.569 57.1673 194.004 56.8291ZM197.392 55.9273C197.844 55.7018 198.07 55.3636 198.295 54.9127C198.521 54.4618 198.634 54.0109 198.634 53.4473C198.634 52.8836 198.521 52.32 198.295 51.9818C198.07 51.5309 197.731 51.1927 197.392 50.9673C197.053 50.7418 196.489 50.6291 196.037 50.6291C195.585 50.6291 195.021 50.7418 194.682 50.9673C194.343 51.1927 194.004 51.5309 193.778 51.9818C193.553 52.4327 193.44 52.8836 193.44 53.4473C193.44 54.0109 193.553 54.5745 193.778 54.9127C194.004 55.2509 194.343 55.7018 194.682 55.9273C195.021 56.1527 195.585 56.2655 196.037 56.2655C196.489 56.2655 196.94 56.1527 197.392 55.9273Z" fill="white"/>
<path d="M211.395 49.5018L209.023 57.28H207.555L205.861 51.4182L204.167 57.28H202.699L200.441 49.5018H201.796L203.377 55.8146L205.184 49.5018H206.652L208.233 55.8146L209.814 49.5018H211.395Z" fill="white"/>
<path d="M219.977 49.5018V50.5163H216.702V52.7709H219.299V53.7854H216.702V57.1672H215.46V49.389H219.977V49.5018Z" fill="white"/>
<path d="M225.849 55.7018H222.574L222.009 57.28H220.654L223.477 49.5018H224.945L227.769 57.28H226.413L225.849 55.7018ZM225.51 54.6873L224.268 51.08L223.026 54.6873H225.51Z" fill="white"/>
<path d="M230.14 57.1673C229.689 56.9418 229.35 56.7164 229.124 56.3782C228.898 56.04 228.785 55.7018 228.785 55.2509H230.14C230.14 55.5891 230.253 55.8146 230.592 56.04C230.931 56.2655 231.157 56.3782 231.608 56.3782C232.06 56.3782 232.399 56.2655 232.625 56.04C232.85 55.8146 232.963 55.5891 232.963 55.2509C232.963 55.0255 232.85 54.8 232.738 54.5746C232.625 54.4618 232.399 54.2364 232.173 54.2364C231.947 54.1237 231.608 54.0109 231.269 53.8982C230.705 53.7855 230.366 53.6727 230.027 53.4473C229.689 53.3346 229.463 53.1091 229.237 52.7709C229.011 52.4327 228.898 52.0946 228.898 51.6437C228.898 51.1927 229.011 50.8546 229.237 50.5164C229.463 50.1782 229.801 49.9527 230.14 49.7273C230.479 49.5018 231.044 49.5018 231.495 49.5018C232.286 49.5018 232.85 49.7273 233.302 50.0655C233.754 50.4036 234.093 50.9673 234.093 51.6437H232.625C232.625 51.3055 232.512 51.08 232.173 50.9673C231.834 50.8546 231.608 50.6291 231.157 50.6291C230.818 50.6291 230.479 50.7418 230.253 50.8546C230.027 51.08 229.914 51.3055 229.914 51.6437C229.914 51.8691 230.027 52.0946 230.14 52.2073C230.253 52.32 230.479 52.4327 230.705 52.5455C230.931 52.6582 231.269 52.7709 231.608 52.8836C232.173 52.9964 232.512 53.2218 232.85 53.3346C233.189 53.4473 233.415 53.6727 233.641 54.0109C233.867 54.3491 233.98 54.6873 233.98 55.2509C233.98 55.7018 233.867 56.04 233.641 56.3782C233.415 56.7164 233.076 57.0546 232.738 57.28C232.286 57.5055 231.834 57.6182 231.269 57.6182C231.044 57.3927 230.592 57.28 230.14 57.1673Z" fill="white"/>
<path d="M240.868 49.5018V50.5164H238.835V57.28H237.593V50.5164H235.448V49.5018H240.868Z" fill="white"/>
<path d="M243.465 50.5163V52.7709H246.176V53.7854H243.465V56.1527H246.514V57.1672H242.223V49.389H246.514V50.4036H243.465V50.5163Z" fill="white"/>
<path d="M252.048 57.28L250.241 54.1237H249.225V57.28H247.982V49.5018H250.693C251.257 49.5018 251.822 49.6146 252.161 49.84C252.612 50.0655 252.838 50.2909 253.064 50.6291C253.29 50.9673 253.403 51.4182 253.403 51.7564C253.403 52.32 253.29 52.7709 252.951 53.1091C252.612 53.56 252.161 53.7855 251.596 54.0109L253.516 57.28H252.048ZM249.338 53.2218H250.806C251.257 53.2218 251.596 53.1091 251.935 52.8836C252.274 52.6582 252.274 52.32 252.274 51.8691C252.274 51.4182 252.161 51.1927 251.935 50.9673C251.709 50.7418 251.37 50.6291 250.806 50.6291H249.338V53.2218Z" fill="white"/>
<path d="M0 0.690918V61H60.4146V0.690918H0ZM6.09793 55.0255V41.9491C11.1795 45.6691 15.8094 49.9527 19.6489 55.0255H6.09793ZM54.3167 55.0255H42.3467C34.1032 39.92 21.4557 27.52 6.09793 19.7418V6.77819H7.22717C27.6665 15.7964 44.2664 31.6909 54.3167 51.4182V55.0255ZM54.3167 18.6146C50.4773 14.3309 46.412 10.3855 42.0079 6.66546H54.3167V18.6146Z" fill="url(#paint0_linear_64_1843)"/>
<g opacity="0.15">
<path d="M54.3167 6.77819V18.7273C52.397 16.5855 50.4773 14.5564 48.4446 12.64L35.3454 25.7164C43.0243 33.1564 49.461 41.8364 54.3167 51.4182V55.0255H42.3467C38.1685 47.36 32.8611 40.4836 26.6502 34.5091L13.2122 47.8109C15.5836 50.0655 17.7292 52.4327 19.6489 54.9127H6.09793L0 61H60.4146V0.690918L54.3167 6.77819Z" fill="#F05B43"/>
</g>
<defs>
<linearGradient id="paint0_linear_64_1843" x1="30.2062" y1="-4.09503" x2="30.2062" y2="61.696" gradientUnits="userSpaceOnUse">
<stop stop-color="#FFD13D"/>
<stop offset="1" stop-color="#EBE849"/>
</linearGradient>
</defs>
</svg>
